<svg version="1.1" xmlns="http://www.w3.org/2000/svg" height="512" width="512">
<line x1="115" y1="238" x2="127" y2="245" style="stroke:rgb(0,0,0);stroke-width:1" />
<line x1="127" y1="245" x2="129" y2="233" style="stroke:rgb(0,0,0);stroke-width:1" />
<line x1="129" y1="233" x2="115" y2="238" style="stroke:rgb(0,0,0);stroke-width:1" />
<line x1="121" y1="264" x2="134" y2="253" style="stroke:rgb(0,0,0);stroke-width:1" />
<line x1="134" y1="253" x2="127" y2="245" style="stroke:rgb(0,0,0);stroke-width:1" />
<line x1="127" y1="245" x2="121" y2="264" style="stroke:rgb(0,0,0);stroke-width:1" />
<line x1="148" y1="262" x2="141" y2="243" style="stroke:rgb(0,0,0);stroke-width:1" />
<line x1="141" y1="243" x2="134" y2="253" style="stroke:rgb(0,0,0);stroke-width:1" />
<line x1="134" y1="253" x2="148" y2="262" style="stroke:rgb(0,0,0);stroke-width:1" />
<line x1="156" y1="231" x2="140" y2="231" style="stroke:rgb(0,0,0);stroke-width:1" />
<line x1="140" y1="231" x2="141" y2="243" style="stroke:rgb(0,0,0);stroke-width:1" />
<line x1="141" y1="243" x2="156" y2="231" style="stroke:rgb(0,0,0);stroke-width:1" />
<line x1="135" y1="211" x2="129" y2="233" style="stroke:rgb(0,0,0);stroke-width:1" />
<line x1="129" y1="233" x2="140" y2="231" style="stroke:rgb(0,0,0);stroke-width:1" />
<line x1="140" y1="231" x2="135" y2="211" style="stroke:rgb(0,0,0);stroke-width:1" />
<line x1="134" y1="253" x2="141" y2="243" style="stroke:rgb(0,0,0);stroke-width:1" />
<line x1="141" y1="243" x2="127" y2="245" style="stroke:rgb(0,0,0);stroke-width:1" />
<line x1="127" y1="245" x2="134" y2="253" style="stroke:rgb(0,0,0);stroke-width:1" />
<line x1="127" y1="245" x2="141" y2="243" style="stroke:rgb(0,0,0);stroke-width:1" />
<line x1="141" y1="243" x2="129" y2="233" style="stroke:rgb(0,0,0);stroke-width:1" />
<line x1="129" y1="233" x2="127" y2="245" style="stroke:rgb(0,0,0);stroke-width:1" />
<line x1="129" y1="233" x2="141" y2="243" style="stroke:rgb(0,0,0);stroke-width:1" />
<line x1="141" y1="243" x2="140" y2="231" style="stroke:rgb(0,0,0);stroke-width:1" />
<line x1="140" y1="231" x2="129" y2="233" style="stroke:rgb(0,0,0);stroke-width:1" />
<line x1="134" y1="255" x2="133" y2="287" style="stroke:rgb(0,0,0);stroke-width:1" />
<line x1="133" y1="287" x2="156" y2="287" style="stroke:rgb(0,0,0);stroke-width:1" />
<line x1="156" y1="287" x2="134" y2="255" style="stroke:rgb(0,0,0);stroke-width:1" />
<line x1="134" y1="287" x2="142" y2="297" style="stroke:rgb(0,0,0);stroke-width:1" />
<line x1="142" y1="297" x2="156" y2="287" style="stroke:rgb(0,0,0);stroke-width:1" />
<line x1="156" y1="287" x2="134" y2="287" style="stroke:rgb(0,0,0);stroke-width:1" />
<line x1="142" y1="297" x2="134" y2="287" style="stroke:rgb(0,0,0);stroke-width:1" />
<line x1="134" y1="287" x2="142" y2="297" style="stroke:rgb(0,0,0);stroke-width:1" />
<line x1="142" y1="297" x2="142" y2="297" style="stroke:rgb(0,0,0);stroke-width:1" />
<line x1="134" y1="287" x2="133" y2="297" style="stroke:rgb(0,0,0);stroke-width:1" />
<line x1="133" y1="297" x2="142" y2="297" style="stroke:rgb(0,0,0);stroke-width:1" />
<line x1="142" y1="297" x2="134" y2="287" style="stroke:rgb(0,0,0);stroke-width:1" />
<line x1="142" y1="297" x2="133" y2="325" style="stroke:rgb(0,0,0);stroke-width:1" />
<line x1="133" y1="325" x2="167" y2="327" style="stroke:rgb(0,0,0);stroke-width:1" />
<line x1="167" y1="327" x2="142" y2="297" style="stroke:rgb(0,0,0);stroke-width:1" />
<line x1="133" y1="297" x2="133" y2="325" style="stroke:rgb(0,0,0);stroke-width:1" />
<line x1="133" y1="325" x2="142" y2="297" style="stroke:rgb(0,0,0);stroke-width:1" />
<line x1="142" y1="297" x2="133" y2="297" style="stroke:rgb(0,0,0);stroke-width:1" />
<line x1="133" y1="325" x2="154" y2="336" style="stroke:rgb(0,0,0);stroke-width:1" />
<line x1="154" y1="336" x2="167" y2="327" style="stroke:rgb(0,0,0);stroke-width:1" />
<line x1="167" y1="327" x2="133" y2="325" style="stroke:rgb(0,0,0);stroke-width:1" />
<line x1="133" y1="325" x2="133" y2="334" style="stroke:rgb(0,0,0);stroke-width:1" />
<line x1="133" y1="334" x2="154" y2="336" style="stroke:rgb(0,0,0);stroke-width:1" />
<line x1="154" y1="336" x2="133" y2="325" style="stroke:rgb(0,0,0);stroke-width:1" />
<line x1="154" y1="336" x2="133" y2="358" style="stroke:rgb(0,0,0);stroke-width:1" />
<line x1="133" y1="358" x2="177" y2="365" style="stroke:rgb(0,0,0);stroke-width:1" />
<line x1="177" y1="365" x2="154" y2="336" style="stroke:rgb(0,0,0);stroke-width:1" />
<line x1="133" y1="334" x2="133" y2="358" style="stroke:rgb(0,0,0);stroke-width:1" />
<line x1="133" y1="358" x2="154" y2="336" style="stroke:rgb(0,0,0);stroke-width:1" />
<line x1="154" y1="336" x2="133" y2="334" style="stroke:rgb(0,0,0);stroke-width:1" />
<line x1="133" y1="358" x2="164" y2="371" style="stroke:rgb(0,0,0);stroke-width:1" />
<line x1="164" y1="371" x2="177" y2="365" style="stroke:rgb(0,0,0);stroke-width:1" />
<line x1="177" y1="365" x2="133" y2="358" style="stroke:rgb(0,0,0);stroke-width:1" />
<line x1="133" y1="358" x2="133" y2="366" style="stroke:rgb(0,0,0);stroke-width:1" />
<line x1="133" y1="366" x2="164" y2="371" style="stroke:rgb(0,0,0);stroke-width:1" />
<line x1="164" y1="371" x2="133" y2="358" style="stroke:rgb(0,0,0);stroke-width:1" />
<line x1="164" y1="371" x2="132" y2="387" style="stroke:rgb(0,0,0);stroke-width:1" />
<line x1="132" y1="387" x2="188" y2="399" style="stroke:rgb(0,0,0);stroke-width:1" />
<line x1="188" y1="399" x2="164" y2="371" style="stroke:rgb(0,0,0);stroke-width:1" />
<line x1="133" y1="366" x2="132" y2="387" style="stroke:rgb(0,0,0);stroke-width:1" />
<line x1="132" y1="387" x2="164" y2="371" style="stroke:rgb(0,0,0);stroke-width:1" />
<line x1="164" y1="371" x2="133" y2="366" style="stroke:rgb(0,0,0);stroke-width:1" />
<line x1="132" y1="387" x2="174" y2="404" style="stroke:rgb(0,0,0);stroke-width:1" />
<line x1="174" y1="404" x2="188" y2="399" style="stroke:rgb(0,0,0);stroke-width:1" />
<line x1="188" y1="399" x2="132" y2="387" style="stroke:rgb(0,0,0);stroke-width:1" />
<line x1="132" y1="387" x2="132" y2="394" style="stroke:rgb(0,0,0);stroke-width:1" />
<line x1="132" y1="394" x2="174" y2="404" style="stroke:rgb(0,0,0);stroke-width:1" />
<line x1="174" y1="404" x2="132" y2="387" style="stroke:rgb(0,0,0);stroke-width:1" />
<line x1="164" y1="371" x2="132" y2="387" style="stroke:rgb(0,0,0);stroke-width:1" />
<line x1="132" y1="387" x2="188" y2="399" style="stroke:rgb(0,0,0);stroke-width:1" />
<line x1="188" y1="399" x2="164" y2="371" style="stroke:rgb(0,0,0);stroke-width:1" />
<line x1="174" y1="404" x2="132" y2="418" style="stroke:rgb(0,0,0);stroke-width:1" />
<line x1="132" y1="418" x2="202" y2="440" style="stroke:rgb(0,0,0);stroke-width:1" />
<line x1="202" y1="440" x2="174" y2="404" style="stroke:rgb(0,0,0);stroke-width:1" />
<line x1="132" y1="394" x2="132" y2="418" style="stroke:rgb(0,0,0);stroke-width:1" />
<line x1="132" y1="418" x2="174" y2="404" style="stroke:rgb(0,0,0);stroke-width:1" />
<line x1="174" y1="404" x2="132" y2="394" style="stroke:rgb(0,0,0);stroke-width:1" />
<line x1="132" y1="418" x2="188" y2="442" style="stroke:rgb(0,0,0);stroke-width:1" />
<line x1="188" y1="442" x2="202" y2="440" style="stroke:rgb(0,0,0);stroke-width:1" />
<line x1="202" y1="440" x2="132" y2="418" style="stroke:rgb(0,0,0);stroke-width:1" />
<line x1="132" y1="418" x2="132" y2="424" style="stroke:rgb(0,0,0);stroke-width:1" />
<line x1="132" y1="424" x2="188" y2="442" style="stroke:rgb(0,0,0);stroke-width:1" />
<line x1="188" y1="442" x2="132" y2="418" style="stroke:rgb(0,0,0);stroke-width:1" />
<line x1="188" y1="442" x2="132" y2="446" style="stroke:rgb(0,0,0);stroke-width:1" />
<line x1="132" y1="446" x2="216" y2="478" style="stroke:rgb(0,0,0);stroke-width:1" />
<line x1="216" y1="478" x2="188" y2="442" style="stroke:rgb(0,0,0);stroke-width:1" />
<line x1="132" y1="424" x2="132" y2="446" style="stroke:rgb(0,0,0);stroke-width:1" />
<line x1="132" y1="446" x2="188" y2="442" style="stroke:rgb(0,0,0);stroke-width:1" />
<line x1="188" y1="442" x2="132" y2="424" style="stroke:rgb(0,0,0);stroke-width:1" />
<line x1="132" y1="446" x2="202" y2="479" style="stroke:rgb(0,0,0);stroke-width:1" />
<line x1="202" y1="479" x2="216" y2="478" style="stroke:rgb(0,0,0);stroke-width:1" />
<line x1="216" y1="478" x2="132" y2="446" style="stroke:rgb(0,0,0);stroke-width:1" />
<line x1="132" y1="446" x2="132" y2="452" style="stroke:rgb(0,0,0);stroke-width:1" />
<line x1="132" y1="452" x2="202" y2="479" style="stroke:rgb(0,0,0);stroke-width:1" />
<line x1="202" y1="479" x2="132" y2="446" style="stroke:rgb(0,0,0);stroke-width:1" />
<line x1="132" y1="452" x2="229" y2="514" style="stroke:rgb(0,0,0);stroke-width:1" />
<line x1="229" y1="514" x2="202" y2="479" style="stroke:rgb(0,0,0);stroke-width:1" />
<line x1="202" y1="479" x2="132" y2="452" style="stroke:rgb(0,0,0);stroke-width:1" />
<line x1="132" y1="452" x2="142" y2="466" style="stroke:rgb(0,0,0);stroke-width:1" />
<line x1="142" y1="466" x2="229" y2="514" style="stroke:rgb(0,0,0);stroke-width:1" />
<line x1="229" y1="514" x2="132" y2="452" style="stroke:rgb(0,0,0);stroke-width:1" />
<line x1="132" y1="452" x2="132" y2="462" style="stroke:rgb(0,0,0);stroke-width:1" />
<line x1="132" y1="462" x2="142" y2="466" style="stroke:rgb(0,0,0);stroke-width:1" />
<line x1="142" y1="466" x2="132" y2="452" style="stroke:rgb(0,0,0);stroke-width:1" />
<line x1="132" y1="462" x2="151" y2="484" style="stroke:rgb(0,0,0);stroke-width:1" />
<line x1="151" y1="484" x2="142" y2="466" style="stroke:rgb(0,0,0);stroke-width:1" />
<line x1="142" y1="466" x2="132" y2="462" style="stroke:rgb(0,0,0);stroke-width:1" />
<line x1="132" y1="462" x2="132" y2="476" style="stroke:rgb(0,0,0);stroke-width:1" />
<line x1="132" y1="476" x2="151" y2="484" style="stroke:rgb(0,0,0);stroke-width:1" />
<line x1="151" y1="484" x2="132" y2="462" style="stroke:rgb(0,0,0);stroke-width:1" />
<line x1="134" y1="255" x2="114" y2="288" style="stroke:rgb(0,0,0);stroke-width:1" />
<line x1="114" y1="288" x2="133" y2="287" style="stroke:rgb(0,0,0);stroke-width:1" />
<line x1="133" y1="287" x2="134" y2="255" style="stroke:rgb(0,0,0);stroke-width:1" />
<line x1="134" y1="287" x2="114" y2="288" style="stroke:rgb(0,0,0);stroke-width:1" />
<line x1="114" y1="288" x2="125" y2="297" style="stroke:rgb(0,0,0);stroke-width:1" />
<line x1="125" y1="297" x2="134" y2="287" style="stroke:rgb(0,0,0);stroke-width:1" />
<line x1="125" y1="297" x2="133" y2="297" style="stroke:rgb(0,0,0);stroke-width:1" />
<line x1="133" y1="297" x2="125" y2="297" style="stroke:rgb(0,0,0);stroke-width:1" />
<line x1="125" y1="297" x2="125" y2="297" style="stroke:rgb(0,0,0);stroke-width:1" />
<line x1="134" y1="287" x2="125" y2="297" style="stroke:rgb(0,0,0);stroke-width:1" />
<line x1="125" y1="297" x2="133" y2="297" style="stroke:rgb(0,0,0);stroke-width:1" />
<line x1="133" y1="297" x2="134" y2="287" style="stroke:rgb(0,0,0);stroke-width:1" />
<line x1="125" y1="297" x2="104" y2="323" style="stroke:rgb(0,0,0);stroke-width:1" />
<line x1="104" y1="323" x2="133" y2="325" style="stroke:rgb(0,0,0);stroke-width:1" />
<line x1="133" y1="325" x2="125" y2="297" style="stroke:rgb(0,0,0);stroke-width:1" />
<line x1="133" y1="297" x2="125" y2="297" style="stroke:rgb(0,0,0);stroke-width:1" />
<line x1="125" y1="297" x2="133" y2="325" style="stroke:rgb(0,0,0);stroke-width:1" />
<line x1="133" y1="325" x2="133" y2="297" style="stroke:rgb(0,0,0);stroke-width:1" />
<line x1="133" y1="325" x2="104" y2="323" style="stroke:rgb(0,0,0);stroke-width:1" />
<line x1="104" y1="323" x2="114" y2="332" style="stroke:rgb(0,0,0);stroke-width:1" />
<line x1="114" y1="332" x2="133" y2="325" style="stroke:rgb(0,0,0);stroke-width:1" />
<line x1="133" y1="325" x2="114" y2="332" style="stroke:rgb(0,0,0);stroke-width:1" />
<line x1="114" y1="332" x2="133" y2="334" style="stroke:rgb(0,0,0);stroke-width:1" />
<line x1="133" y1="334" x2="133" y2="325" style="stroke:rgb(0,0,0);stroke-width:1" />
<line x1="114" y1="332" x2="96" y2="352" style="stroke:rgb(0,0,0);stroke-width:1" />
<line x1="96" y1="352" x2="133" y2="358" style="stroke:rgb(0,0,0);stroke-width:1" />
<line x1="133" y1="358" x2="114" y2="332" style="stroke:rgb(0,0,0);stroke-width:1" />
<line x1="133" y1="334" x2="114" y2="332" style="stroke:rgb(0,0,0);stroke-width:1" />
<line x1="114" y1="332" x2="133" y2="358" style="stroke:rgb(0,0,0);stroke-width:1" />
<line x1="133" y1="358" x2="133" y2="334" style="stroke:rgb(0,0,0);stroke-width:1" />
<line x1="133" y1="358" x2="96" y2="352" style="stroke:rgb(0,0,0);stroke-width:1" />
<line x1="96" y1="352" x2="106" y2="360" style="stroke:rgb(0,0,0);stroke-width:1" />
<line x1="106" y1="360" x2="133" y2="358" style="stroke:rgb(0,0,0);stroke-width:1" />
<line x1="133" y1="358" x2="106" y2="360" style="stroke:rgb(0,0,0);stroke-width:1" />
<line x1="106" y1="360" x2="133" y2="366" style="stroke:rgb(0,0,0);stroke-width:1" />
<line x1="133" y1="366" x2="133" y2="358" style="stroke:rgb(0,0,0);stroke-width:1" />
<line x1="106" y1="360" x2="89" y2="377" style="stroke:rgb(0,0,0);stroke-width:1" />
<line x1="89" y1="377" x2="132" y2="387" style="stroke:rgb(0,0,0);stroke-width:1" />
<line x1="132" y1="387" x2="106" y2="360" style="stroke:rgb(0,0,0);stroke-width:1" />
<line x1="133" y1="366" x2="106" y2="360" style="stroke:rgb(0,0,0);stroke-width:1" />
<line x1="106" y1="360" x2="132" y2="387" style="stroke:rgb(0,0,0);stroke-width:1" />
<line x1="132" y1="387" x2="133" y2="366" style="stroke:rgb(0,0,0);stroke-width:1" />
<line x1="132" y1="387" x2="89" y2="377" style="stroke:rgb(0,0,0);stroke-width:1" />
<line x1="89" y1="377" x2="98" y2="385" style="stroke:rgb(0,0,0);stroke-width:1" />
<line x1="98" y1="385" x2="132" y2="387" style="stroke:rgb(0,0,0);stroke-width:1" />
<line x1="132" y1="387" x2="98" y2="385" style="stroke:rgb(0,0,0);stroke-width:1" />
<line x1="98" y1="385" x2="132" y2="394" style="stroke:rgb(0,0,0);stroke-width:1" />
<line x1="132" y1="394" x2="132" y2="387" style="stroke:rgb(0,0,0);stroke-width:1" />
<line x1="106" y1="360" x2="89" y2="377" style="stroke:rgb(0,0,0);stroke-width:1" />
<line x1="89" y1="377" x2="132" y2="387" style="stroke:rgb(0,0,0);stroke-width:1" />
<line x1="132" y1="387" x2="106" y2="360" style="stroke:rgb(0,0,0);stroke-width:1" />
<line x1="98" y1="385" x2="80" y2="403" style="stroke:rgb(0,0,0);stroke-width:1" />
<line x1="80" y1="403" x2="132" y2="418" style="stroke:rgb(0,0,0);stroke-width:1" />
<line x1="132" y1="418" x2="98" y2="385" style="stroke:rgb(0,0,0);stroke-width:1" />
<line x1="132" y1="394" x2="98" y2="385" style="stroke:rgb(0,0,0);stroke-width:1" />
<line x1="98" y1="385" x2="132" y2="418" style="stroke:rgb(0,0,0);stroke-width:1" />
<line x1="132" y1="418" x2="132" y2="394" style="stroke:rgb(0,0,0);stroke-width:1" />
<line x1="132" y1="418" x2="80" y2="403" style="stroke:rgb(0,0,0);stroke-width:1" />
<line x1="80" y1="403" x2="88" y2="410" style="stroke:rgb(0,0,0);stroke-width:1" />
<line x1="88" y1="410" x2="132" y2="418" style="stroke:rgb(0,0,0);stroke-width:1" />
<line x1="132" y1="418" x2="88" y2="410" style="stroke:rgb(0,0,0);stroke-width:1" />
<line x1="88" y1="410" x2="132" y2="424" style="stroke:rgb(0,0,0);stroke-width:1" />
<line x1="132" y1="424" x2="132" y2="418" style="stroke:rgb(0,0,0);stroke-width:1" />
<line x1="88" y1="410" x2="72" y2="424" style="stroke:rgb(0,0,0);stroke-width:1" />
<line x1="72" y1="424" x2="132" y2="446" style="stroke:rgb(0,0,0);stroke-width:1" />
<line x1="132" y1="446" x2="88" y2="410" style="stroke:rgb(0,0,0);stroke-width:1" />
<line x1="132" y1="424" x2="88" y2="410" style="stroke:rgb(0,0,0);stroke-width:1" />
<line x1="88" y1="410" x2="132" y2="446" style="stroke:rgb(0,0,0);stroke-width:1" />
<line x1="132" y1="446" x2="132" y2="424" style="stroke:rgb(0,0,0);stroke-width:1" />
<line x1="132" y1="446" x2="72" y2="424" style="stroke:rgb(0,0,0);stroke-width:1" />
<line x1="72" y1="424" x2="80" y2="431" style="stroke:rgb(0,0,0);stroke-width:1" />
<line x1="80" y1="431" x2="132" y2="446" style="stroke:rgb(0,0,0);stroke-width:1" />
<line x1="132" y1="446" x2="80" y2="431" style="stroke:rgb(0,0,0);stroke-width:1" />
<line x1="80" y1="431" x2="132" y2="452" style="stroke:rgb(0,0,0);stroke-width:1" />
<line x1="132" y1="452" x2="132" y2="446" style="stroke:rgb(0,0,0);stroke-width:1" />
<line x1="132" y1="452" x2="80" y2="431" style="stroke:rgb(0,0,0);stroke-width:1" />
<line x1="80" y1="431" x2="66" y2="442" style="stroke:rgb(0,0,0);stroke-width:1" />
<line x1="66" y1="442" x2="132" y2="452" style="stroke:rgb(0,0,0);stroke-width:1" />
<line x1="132" y1="452" x2="66" y2="442" style="stroke:rgb(0,0,0);stroke-width:1" />
<line x1="66" y1="442" x2="122" y2="457" style="stroke:rgb(0,0,0);stroke-width:1" />
<line x1="122" y1="457" x2="132" y2="452" style="stroke:rgb(0,0,0);stroke-width:1" />
<line x1="132" y1="452" x2="122" y2="457" style="stroke:rgb(0,0,0);stroke-width:1" />
<line x1="122" y1="457" x2="132" y2="462" style="stroke:rgb(0,0,0);stroke-width:1" />
<line x1="132" y1="462" x2="132" y2="452" style="stroke:rgb(0,0,0);stroke-width:1" />
<line x1="132" y1="462" x2="122" y2="457" style="stroke:rgb(0,0,0);stroke-width:1" />
<line x1="122" y1="457" x2="114" y2="468" style="stroke:rgb(0,0,0);stroke-width:1" />
<line x1="114" y1="468" x2="132" y2="462" style="stroke:rgb(0,0,0);stroke-width:1" />
<line x1="132" y1="462" x2="114" y2="468" style="stroke:rgb(0,0,0);stroke-width:1" />
<line x1="114" y1="468" x2="132" y2="476" style="stroke:rgb(0,0,0);stroke-width:1" />
<line x1="132" y1="476" x2="132" y2="462" style="stroke:rgb(0,0,0);stroke-width:1" />
<line x1="134" y1="255" x2="134" y2="287" style="stroke:rgb(0,0,0);stroke-width:1" />
<line x1="134" y1="287" x2="144" y2="288" style="stroke:rgb(0,0,0);stroke-width:1" />
<line x1="144" y1="288" x2="134" y2="255" style="stroke:rgb(0,0,0);stroke-width:1" />
<line x1="134" y1="287" x2="138" y2="297" style="stroke:rgb(0,0,0);stroke-width:1" />
<line x1="138" y1="297" x2="144" y2="288" style="stroke:rgb(0,0,0);stroke-width:1" />
<line x1="144" y1="288" x2="134" y2="287" style="stroke:rgb(0,0,0);stroke-width:1" />
<line x1="138" y1="297" x2="134" y2="287" style="stroke:rgb(0,0,0);stroke-width:1" />
<line x1="134" y1="287" x2="138" y2="297" style="stroke:rgb(0,0,0);stroke-width:1" />
<line x1="138" y1="297" x2="138" y2="297" style="stroke:rgb(0,0,0);stroke-width:1" />
<line x1="134" y1="287" x2="133" y2="297" style="stroke:rgb(0,0,0);stroke-width:1" />
<line x1="133" y1="297" x2="138" y2="297" style="stroke:rgb(0,0,0);stroke-width:1" />
<line x1="138" y1="297" x2="134" y2="287" style="stroke:rgb(0,0,0);stroke-width:1" />
<line x1="138" y1="297" x2="133" y2="325" style="stroke:rgb(0,0,0);stroke-width:1" />
<line x1="133" y1="325" x2="148" y2="321" style="stroke:rgb(0,0,0);stroke-width:1" />
<line x1="148" y1="321" x2="138" y2="297" style="stroke:rgb(0,0,0);stroke-width:1" />
<line x1="133" y1="297" x2="133" y2="325" style="stroke:rgb(0,0,0);stroke-width:1" />
<line x1="133" y1="325" x2="138" y2="297" style="stroke:rgb(0,0,0);stroke-width:1" />
<line x1="138" y1="297" x2="133" y2="297" style="stroke:rgb(0,0,0);stroke-width:1" />
<line x1="133" y1="325" x2="143" y2="331" style="stroke:rgb(0,0,0);stroke-width:1" />
<line x1="143" y1="331" x2="148" y2="321" style="stroke:rgb(0,0,0);stroke-width:1" />
<line x1="148" y1="321" x2="133" y2="325" style="stroke:rgb(0,0,0);stroke-width:1" />
<line x1="133" y1="325" x2="133" y2="334" style="stroke:rgb(0,0,0);stroke-width:1" />
<line x1="133" y1="334" x2="143" y2="331" style="stroke:rgb(0,0,0);stroke-width:1" />
<line x1="143" y1="331" x2="133" y2="325" style="stroke:rgb(0,0,0);stroke-width:1" />
<line x1="143" y1="331" x2="133" y2="358" style="stroke:rgb(0,0,0);stroke-width:1" />
<line x1="133" y1="358" x2="151" y2="349" style="stroke:rgb(0,0,0);stroke-width:1" />
<line x1="151" y1="349" x2="143" y2="331" style="stroke:rgb(0,0,0);stroke-width:1" />
<line x1="133" y1="334" x2="133" y2="358" style="stroke:rgb(0,0,0);stroke-width:1" />
<line x1="133" y1="358" x2="143" y2="331" style="stroke:rgb(0,0,0);stroke-width:1" />
<line x1="143" y1="331" x2="133" y2="334" style="stroke:rgb(0,0,0);stroke-width:1" />
<line x1="133" y1="358" x2="146" y2="357" style="stroke:rgb(0,0,0);stroke-width:1" />
<line x1="146" y1="357" x2="151" y2="349" style="stroke:rgb(0,0,0);stroke-width:1" />
<line x1="151" y1="349" x2="133" y2="358" style="stroke:rgb(0,0,0);stroke-width:1" />
<line x1="133" y1="358" x2="133" y2="366" style="stroke:rgb(0,0,0);stroke-width:1" />
<line x1="133" y1="366" x2="146" y2="357" style="stroke:rgb(0,0,0);stroke-width:1" />
<line x1="146" y1="357" x2="133" y2="358" style="stroke:rgb(0,0,0);stroke-width:1" />
<line x1="146" y1="357" x2="133" y2="387" style="stroke:rgb(0,0,0);stroke-width:1" />
<line x1="133" y1="387" x2="154" y2="371" style="stroke:rgb(0,0,0);stroke-width:1" />
<line x1="154" y1="371" x2="146" y2="357" style="stroke:rgb(0,0,0);stroke-width:1" />
<line x1="133" y1="366" x2="133" y2="387" style="stroke:rgb(0,0,0);stroke-width:1" />
<line x1="133" y1="387" x2="146" y2="357" style="stroke:rgb(0,0,0);stroke-width:1" />
<line x1="146" y1="357" x2="133" y2="366" style="stroke:rgb(0,0,0);stroke-width:1" />
<line x1="133" y1="387" x2="150" y2="379" style="stroke:rgb(0,0,0);stroke-width:1" />
<line x1="150" y1="379" x2="154" y2="371" style="stroke:rgb(0,0,0);stroke-width:1" />
<line x1="154" y1="371" x2="133" y2="387" style="stroke:rgb(0,0,0);stroke-width:1" />
<line x1="133" y1="387" x2="132" y2="394" style="stroke:rgb(0,0,0);stroke-width:1" />
<line x1="132" y1="394" x2="150" y2="379" style="stroke:rgb(0,0,0);stroke-width:1" />
<line x1="150" y1="379" x2="133" y2="387" style="stroke:rgb(0,0,0);stroke-width:1" />
<line x1="146" y1="357" x2="133" y2="387" style="stroke:rgb(0,0,0);stroke-width:1" />
<line x1="133" y1="387" x2="154" y2="371" style="stroke:rgb(0,0,0);stroke-width:1" />
<line x1="154" y1="371" x2="146" y2="357" style="stroke:rgb(0,0,0);stroke-width:1" />
<line x1="150" y1="379" x2="132" y2="418" style="stroke:rgb(0,0,0);stroke-width:1" />
<line x1="132" y1="418" x2="158" y2="393" style="stroke:rgb(0,0,0);stroke-width:1" />
<line x1="158" y1="393" x2="150" y2="379" style="stroke:rgb(0,0,0);stroke-width:1" />
<line x1="132" y1="394" x2="132" y2="418" style="stroke:rgb(0,0,0);stroke-width:1" />
<line x1="132" y1="418" x2="150" y2="379" style="stroke:rgb(0,0,0);stroke-width:1" />
<line x1="150" y1="379" x2="132" y2="394" style="stroke:rgb(0,0,0);stroke-width:1" />
<line x1="132" y1="418" x2="154" y2="401" style="stroke:rgb(0,0,0);stroke-width:1" />
<line x1="154" y1="401" x2="158" y2="393" style="stroke:rgb(0,0,0);stroke-width:1" />
<line x1="158" y1="393" x2="132" y2="418" style="stroke:rgb(0,0,0);stroke-width:1" />
<line x1="132" y1="418" x2="132" y2="425" style="stroke:rgb(0,0,0);stroke-width:1" />
<line x1="132" y1="425" x2="154" y2="401" style="stroke:rgb(0,0,0);stroke-width:1" />
<line x1="154" y1="401" x2="132" y2="418" style="stroke:rgb(0,0,0);stroke-width:1" />
<line x1="154" y1="401" x2="132" y2="447" style="stroke:rgb(0,0,0);stroke-width:1" />
<line x1="132" y1="447" x2="161" y2="411" style="stroke:rgb(0,0,0);stroke-width:1" />
<line x1="161" y1="411" x2="154" y2="401" style="stroke:rgb(0,0,0);stroke-width:1" />
<line x1="132" y1="425" x2="132" y2="447" style="stroke:rgb(0,0,0);stroke-width:1" />
<line x1="132" y1="447" x2="154" y2="401" style="stroke:rgb(0,0,0);stroke-width:1" />
<line x1="154" y1="401" x2="132" y2="425" style="stroke:rgb(0,0,0);stroke-width:1" />
<line x1="132" y1="447" x2="157" y2="419" style="stroke:rgb(0,0,0);stroke-width:1" />
<line x1="157" y1="419" x2="161" y2="411" style="stroke:rgb(0,0,0);stroke-width:1" />
<line x1="161" y1="411" x2="132" y2="447" style="stroke:rgb(0,0,0);stroke-width:1" />
<line x1="132" y1="447" x2="132" y2="452" style="stroke:rgb(0,0,0);stroke-width:1" />
<line x1="132" y1="452" x2="157" y2="419" style="stroke:rgb(0,0,0);stroke-width:1" />
<line x1="157" y1="419" x2="132" y2="447" style="stroke:rgb(0,0,0);stroke-width:1" />
<line x1="132" y1="452" x2="163" y2="426" style="stroke:rgb(0,0,0);stroke-width:1" />
<line x1="163" y1="426" x2="157" y2="419" style="stroke:rgb(0,0,0);stroke-width:1" />
<line x1="157" y1="419" x2="132" y2="452" style="stroke:rgb(0,0,0);stroke-width:1" />
<line x1="132" y1="452" x2="137" y2="455" style="stroke:rgb(0,0,0);stroke-width:1" />
<line x1="137" y1="455" x2="163" y2="426" style="stroke:rgb(0,0,0);stroke-width:1" />
<line x1="163" y1="426" x2="132" y2="452" style="stroke:rgb(0,0,0);stroke-width:1" />
<line x1="132" y1="452" x2="132" y2="462" style="stroke:rgb(0,0,0);stroke-width:1" />
<line x1="132" y1="462" x2="137" y2="455" style="stroke:rgb(0,0,0);stroke-width:1" />
<line x1="137" y1="455" x2="132" y2="452" style="stroke:rgb(0,0,0);stroke-width:1" />
<line x1="132" y1="462" x2="141" y2="462" style="stroke:rgb(0,0,0);stroke-width:1" />
<line x1="141" y1="462" x2="137" y2="455" style="stroke:rgb(0,0,0);stroke-width:1" />
<line x1="137" y1="455" x2="132" y2="462" style="stroke:rgb(0,0,0);stroke-width:1" />
<line x1="132" y1="462" x2="132" y2="476" style="stroke:rgb(0,0,0);stroke-width:1" />
<line x1="132" y1="476" x2="141" y2="462" style="stroke:rgb(0,0,0);stroke-width:1" />
<line x1="141" y1="462" x2="132" y2="462" style="stroke:rgb(0,0,0);stroke-width:1" />
<line x1="134" y1="255" x2="121" y2="287" style="stroke:rgb(0,0,0);stroke-width:1" />
<line x1="121" y1="287" x2="134" y2="287" style="stroke:rgb(0,0,0);stroke-width:1" />
<line x1="134" y1="287" x2="134" y2="255" style="stroke:rgb(0,0,0);stroke-width:1" />
<line x1="134" y1="287" x2="121" y2="287" style="stroke:rgb(0,0,0);stroke-width:1" />
<line x1="121" y1="287" x2="129" y2="297" style="stroke:rgb(0,0,0);stroke-width:1" />
<line x1="129" y1="297" x2="134" y2="287" style="stroke:rgb(0,0,0);stroke-width:1" />
<line x1="129" y1="297" x2="133" y2="297" style="stroke:rgb(0,0,0);stroke-width:1" />
<line x1="133" y1="297" x2="129" y2="297" style="stroke:rgb(0,0,0);stroke-width:1" />
<line x1="129" y1="297" x2="129" y2="297" style="stroke:rgb(0,0,0);stroke-width:1" />
<line x1="134" y1="287" x2="129" y2="297" style="stroke:rgb(0,0,0);stroke-width:1" />
<line x1="129" y1="297" x2="133" y2="297" style="stroke:rgb(0,0,0);stroke-width:1" />
<line x1="133" y1="297" x2="134" y2="287" style="stroke:rgb(0,0,0);stroke-width:1" />
<line x1="129" y1="297" x2="114" y2="329" style="stroke:rgb(0,0,0);stroke-width:1" />
<line x1="114" y1="329" x2="133" y2="325" style="stroke:rgb(0,0,0);stroke-width:1" />
<line x1="133" y1="325" x2="129" y2="297" style="stroke:rgb(0,0,0);stroke-width:1" />
<line x1="133" y1="297" x2="129" y2="297" style="stroke:rgb(0,0,0);stroke-width:1" />
<line x1="129" y1="297" x2="133" y2="325" style="stroke:rgb(0,0,0);stroke-width:1" />
<line x1="133" y1="325" x2="133" y2="297" style="stroke:rgb(0,0,0);stroke-width:1" />
<line x1="133" y1="325" x2="114" y2="329" style="stroke:rgb(0,0,0);stroke-width:1" />
<line x1="114" y1="329" x2="122" y2="337" style="stroke:rgb(0,0,0);stroke-width:1" />
<line x1="122" y1="337" x2="133" y2="325" style="stroke:rgb(0,0,0);stroke-width:1" />
<line x1="133" y1="325" x2="122" y2="337" style="stroke:rgb(0,0,0);stroke-width:1" />
<line x1="122" y1="337" x2="133" y2="334" style="stroke:rgb(0,0,0);stroke-width:1" />
<line x1="133" y1="334" x2="133" y2="325" style="stroke:rgb(0,0,0);stroke-width:1" />
<line x1="122" y1="337" x2="107" y2="371" style="stroke:rgb(0,0,0);stroke-width:1" />
<line x1="107" y1="371" x2="133" y2="358" style="stroke:rgb(0,0,0);stroke-width:1" />
<line x1="133" y1="358" x2="122" y2="337" style="stroke:rgb(0,0,0);stroke-width:1" />
<line x1="133" y1="334" x2="122" y2="337" style="stroke:rgb(0,0,0);stroke-width:1" />
<line x1="122" y1="337" x2="133" y2="358" style="stroke:rgb(0,0,0);stroke-width:1" />
<line x1="133" y1="358" x2="133" y2="334" style="stroke:rgb(0,0,0);stroke-width:1" />
<line x1="133" y1="358" x2="107" y2="371" style="stroke:rgb(0,0,0);stroke-width:1" />
<line x1="107" y1="371" x2="115" y2="375" style="stroke:rgb(0,0,0);stroke-width:1" />
<line x1="115" y1="375" x2="133" y2="358" style="stroke:rgb(0,0,0);stroke-width:1" />
<line x1="133" y1="358" x2="115" y2="375" style="stroke:rgb(0,0,0);stroke-width:1" />
<line x1="115" y1="375" x2="133" y2="366" style="stroke:rgb(0,0,0);stroke-width:1" />
<line x1="133" y1="366" x2="133" y2="358" style="stroke:rgb(0,0,0);stroke-width:1" />
<line x1="115" y1="375" x2="99" y2="412" style="stroke:rgb(0,0,0);stroke-width:1" />
<line x1="99" y1="412" x2="133" y2="387" style="stroke:rgb(0,0,0);stroke-width:1" />
<line x1="133" y1="387" x2="115" y2="375" style="stroke:rgb(0,0,0);stroke-width:1" />
<line x1="133" y1="366" x2="115" y2="375" style="stroke:rgb(0,0,0);stroke-width:1" />
<line x1="115" y1="375" x2="133" y2="387" style="stroke:rgb(0,0,0);stroke-width:1" />
<line x1="133" y1="387" x2="133" y2="366" style="stroke:rgb(0,0,0);stroke-width:1" />
<line x1="133" y1="387" x2="99" y2="412" style="stroke:rgb(0,0,0);stroke-width:1" />
<line x1="99" y1="412" x2="108" y2="413" style="stroke:rgb(0,0,0);stroke-width:1" />
<line x1="108" y1="413" x2="133" y2="387" style="stroke:rgb(0,0,0);stroke-width:1" />
<line x1="133" y1="387" x2="108" y2="413" style="stroke:rgb(0,0,0);stroke-width:1" />
<line x1="108" y1="413" x2="132" y2="394" style="stroke:rgb(0,0,0);stroke-width:1" />
<line x1="132" y1="394" x2="133" y2="387" style="stroke:rgb(0,0,0);stroke-width:1" />
<line x1="115" y1="375" x2="99" y2="412" style="stroke:rgb(0,0,0);stroke-width:1" />
<line x1="99" y1="412" x2="133" y2="387" style="stroke:rgb(0,0,0);stroke-width:1" />
<line x1="133" y1="387" x2="115" y2="375" style="stroke:rgb(0,0,0);stroke-width:1" />
<line x1="108" y1="413" x2="88" y2="463" style="stroke:rgb(0,0,0);stroke-width:1" />
<line x1="88" y1="463" x2="132" y2="418" style="stroke:rgb(0,0,0);stroke-width:1" />
<line x1="132" y1="418" x2="108" y2="413" style="stroke:rgb(0,0,0);stroke-width:1" />
<line x1="132" y1="394" x2="108" y2="413" style="stroke:rgb(0,0,0);stroke-width:1" />
<line x1="108" y1="413" x2="132" y2="418" style="stroke:rgb(0,0,0);stroke-width:1" />
<line x1="132" y1="418" x2="132" y2="394" style="stroke:rgb(0,0,0);stroke-width:1" />
<line x1="132" y1="418" x2="88" y2="463" style="stroke:rgb(0,0,0);stroke-width:1" />
<line x1="88" y1="463" x2="98" y2="461" style="stroke:rgb(0,0,0);stroke-width:1" />
<line x1="98" y1="461" x2="132" y2="418" style="stroke:rgb(0,0,0);stroke-width:1" />
<line x1="132" y1="418" x2="98" y2="461" style="stroke:rgb(0,0,0);stroke-width:1" />
<line x1="98" y1="461" x2="132" y2="425" style="stroke:rgb(0,0,0);stroke-width:1" />
<line x1="132" y1="425" x2="132" y2="418" style="stroke:rgb(0,0,0);stroke-width:1" />
<line x1="98" y1="461" x2="77" y2="514" style="stroke:rgb(0,0,0);stroke-width:1" />
<line x1="77" y1="514" x2="132" y2="447" style="stroke:rgb(0,0,0);stroke-width:1" />
<line x1="132" y1="447" x2="98" y2="461" style="stroke:rgb(0,0,0);stroke-width:1" />
<line x1="132" y1="425" x2="98" y2="461" style="stroke:rgb(0,0,0);stroke-width:1" />
<line x1="98" y1="461" x2="132" y2="447" style="stroke:rgb(0,0,0);stroke-width:1" />
<line x1="132" y1="447" x2="132" y2="425" style="stroke:rgb(0,0,0);stroke-width:1" />
<line x1="132" y1="447" x2="77" y2="514" style="stroke:rgb(0,0,0);stroke-width:1" />
<line x1="77" y1="514" x2="88" y2="508" style="stroke:rgb(0,0,0);stroke-width:1" />
<line x1="88" y1="508" x2="132" y2="447" style="stroke:rgb(0,0,0);stroke-width:1" />
<line x1="132" y1="447" x2="88" y2="508" style="stroke:rgb(0,0,0);stroke-width:1" />
<line x1="88" y1="508" x2="132" y2="452" style="stroke:rgb(0,0,0);stroke-width:1" />
<line x1="132" y1="452" x2="132" y2="447" style="stroke:rgb(0,0,0);stroke-width:1" />
<line x1="132" y1="452" x2="88" y2="508" style="stroke:rgb(0,0,0);stroke-width:1" />
<line x1="88" y1="508" x2="67" y2="565" style="stroke:rgb(0,0,0);stroke-width:1" />
<line x1="67" y1="565" x2="132" y2="452" style="stroke:rgb(0,0,0);stroke-width:1" />
<line x1="132" y1="452" x2="67" y2="565" style="stroke:rgb(0,0,0);stroke-width:1" />
<line x1="67" y1="565" x2="126" y2="470" style="stroke:rgb(0,0,0);stroke-width:1" />
<line x1="126" y1="470" x2="132" y2="452" style="stroke:rgb(0,0,0);stroke-width:1" />
<line x1="132" y1="452" x2="126" y2="470" style="stroke:rgb(0,0,0);stroke-width:1" />
<line x1="126" y1="470" x2="132" y2="462" style="stroke:rgb(0,0,0);stroke-width:1" />
<line x1="132" y1="462" x2="132" y2="452" style="stroke:rgb(0,0,0);stroke-width:1" />
<line x1="132" y1="462" x2="126" y2="470" style="stroke:rgb(0,0,0);stroke-width:1" />
<line x1="126" y1="470" x2="121" y2="492" style="stroke:rgb(0,0,0);stroke-width:1" />
<line x1="121" y1="492" x2="132" y2="462" style="stroke:rgb(0,0,0);stroke-width:1" />
<line x1="132" y1="462" x2="121" y2="492" style="stroke:rgb(0,0,0);stroke-width:1" />
<line x1="121" y1="492" x2="132" y2="476" style="stroke:rgb(0,0,0);stroke-width:1" />
<line x1="132" y1="476" x2="132" y2="462" style="stroke:rgb(0,0,0);stroke-width:1" />
</svg>
